<?xml version="1.0" encoding="utf-8"?>
<!-- Generator: Adobe Illustrator 19.0.0, SVG Export Plug-In . SVG Version: 6.00 Build 0)  -->
<svg version="1.1" baseProfile="tiny" id="Layer_1" xmlns="http://www.w3.org/2000/svg" xmlns:xlink="http://www.w3.org/1999/xlink"
	 x="0px" y="0px" viewBox="0 0 2040.9 3628.4" xml:space="preserve">
<g id="XMLID_56_">
	<path id="XMLID_36_" fill="#ED002F" d="M1149.1,2586.4c-62.8,32-87.8,109.2-55.7,172c32,62.8,109.2,87.8,172,55.7
		c62.8-32,87.8-109.2,55.7-172C1289.1,2579.2,1211.9,2554.3,1149.1,2586.4z"/>
	<path id="XMLID_35_" fill="#ED002F" d="M1420.1,2761.8c-62.8,32-87.8,109.2-55.7,172c32,62.8,109.2,87.8,172,55.7
		c62.8-32,87.8-109.2,55.7-172C1560,2754.7,1482.9,2729.6,1420.1,2761.8z"/>
	<path id="XMLID_34_" fill="#ED002F" d="M1707.8,2614.8c-62.8,32-87.8,109.2-55.7,172c32,62.8,109.2,87.8,172,55.7
		c62.8-32,87.8-109.2,55.7-172C1847.6,2607.7,1770.4,2582.6,1707.8,2614.8z"/>
	<path id="XMLID_33_" fill="#ED002F" d="M1995.3,2467.8c-62.8,32-87.8,109.2-55.7,172c32,62.8,109.2,87.8,172,55.7
		s87.8-109.2,55.7-172C2135.3,2460.5,2058.2,2435.6,1995.3,2467.8L1995.3,2467.8z"/>
	<path id="XMLID_32_" fill="#ED002F" d="M1132.5,2908.8c-62.8,32-87.8,109.2-55.7,172c32,62.8,109.2,87.8,172,55.7
		c62.8-32,87.8-109.2,55.7-172C1272.5,2901.7,1195.4,2876.6,1132.5,2908.8z"/>
	<path id="XMLID_31_" fill="#ED002F" d="M1436.6,2439.4c-62.8,32-87.8,109.2-55.7,172c32,62.8,109.2,87.8,172,55.7
		c62.8-32,87.8-109.2,55.7-172C1576.6,2432.2,1499.5,2407.3,1436.6,2439.4z"/>
	<path id="XMLID_30_" fill="#ED002F" d="M1724.1,2292.4c-62.8,32-87.8,109.2-55.7,172c32,62.8,109.2,87.8,172,55.7
		c62.8-32,87.8-109.2,55.7-172C1864.1,2285.2,1787,2260.3,1724.1,2292.4z"/>
	<path id="XMLID_29_" fill="#ED002F" d="M1404,3084.9c-62.8,32-87.8,109.2-55.7,172c32,62.8,109.2,87.8,172,55.7
		c62.8-32,87.8-109.2,55.7-172S1466.8,3052.9,1404,3084.9z"/>
	<path id="XMLID_28_" fill="#ED002F" d="M1675.7,3261.5c-62.8,32-87.8,109.2-55.7,172s109.2,87.8,172,55.7
		c62.8-32,87.8-109.2,55.7-172C1815.7,3254.3,1738.3,3229.4,1675.7,3261.5z"/>
	<path id="XMLID_27_" fill="#ED002F" d="M1963.2,3114.5c-62.8,32-87.8,109.2-55.7,172c32,62.8,109.2,87.8,172,55.7
		c62.8-32,87.8-109.2,55.7-172C2103.2,3107.3,2026.1,3082.4,1963.2,3114.5z"/>
	<path id="XMLID_26_" fill="#ED002F" d="M1691.5,2937.9c-62.8,32-87.8,109.2-55.7,172c32,62.8,109.2,87.8,172,55.7
		c62.8-32,87.8-109.2,55.7-172C1831.5,2930.8,1754.4,2905.9,1691.5,2937.9z"/>
	<path id="XMLID_25_" fill="#ED002F" d="M1979,2790.9c-62.8,32-87.8,109.2-55.7,172c32,62.8,109.2,87.8,172,55.7
		c62.8-32,87.8-109.2,55.7-172C2119,2783.8,2041.9,2758.9,1979,2790.9z"/>
	<path id="XMLID_24_" fill="#ED002F" d="M1227.7,2214.6c34.9,68.5,115.8,105,159.2,120c13.2-44.1,30.9-130.9-4.1-199.5
		c-25.2-49.4-74.6-81.7-111.7-100.2c-18-9-34.4-15.5-47.6-20.1C1210.7,2059.2,1192.8,2146.1,1227.7,2214.6L1227.7,2214.6z"/>
	<path id="XMLID_23_" fill="#ED002F" d="M1280.1,2469.1c27.5-14.2,61.3-37.1,82-71.7c-14.3-5.2-31.9-12-50.3-21.3
		c-71.5-9.1-161.1,7.6-230,42.7c-27.3,13.9-60.8,35.7-82.6,66.1C1083.6,2517.2,1196.2,2511.9,1280.1,2469.1L1280.1,2469.1
		L1280.1,2469.1z"/>
	<path id="XMLID_20_" fill="#ED002F" d="M1464.7,2298.2c-3.4,20.5-8,38.6-12.3,53.3c40,3.4,78.6-10.5,106.1-24.6
		c83.9-42.8,154-130.9,177.3-218.5c-37.3-0.2-74.7,14.3-102,28.2C1565.1,2171.9,1499.2,2234.7,1464.7,2298.2L1464.7,2298.2z"/>
</g>
<path id="XMLID_62_" fill="#1B0064" stroke="#1B0064" stroke-width="2.4387" stroke-miterlimit="10" d="M1097.9,682.2
	c-30.3,2.1-58.1,17.3-76.3,41.6c7.6-23.8,9.8-49,6.3-73.8c7.1,2.6,14.7,3.4,22.2,2.4c5.1-0.3,10.9-1,17.4-1.7
	c6.3-0.7,13.4-1.5,21.5-2.2c45.4-4,58.9-51.1,59.4-53.1c1-3.4-0.8-7-4.1-8.2c-2-0.8-48.2-18.1-72.1,15.2
	c-11.3,15.8-29,25.8-48.4,27.4l0,0c-2.7-10-6.3-19.7-11-28.9c-0.8-1.7-2.2-2.9-4-3.6c-1.8-0.7-3.7-0.5-5.3,0.3
	c-1.6,0.8-2.9,2.3-3.5,4.1s-0.4,3.7,0.5,5.3c7.6,15.2,12.4,31.7,14.1,48.7c-1.7-2.4-3.6-4.9-5.5-7.6c-3.3-4.4-6.9-9.3-11-15.1
	c-23-32.7-64.6-22.2-66.4-21.7c-3.4,0.9-5.6,4.2-5,7.7c0.3,1.8,7.5,44.5,43.4,48c16.4,1.6,31.2,10.2,40.7,23.7
	c0.8,1.2,2,2.2,3.4,2.8c-0.8,6.4-2,12.8-3.7,19c-20.6-27.5-53.2-43.1-87.5-41.8c-34.3,1.3-65.7,19.3-84.1,48.3
	c-18.5,28.9-21.5,65-8.1,96.7c13.3,31.6,41.3,54.6,74.9,61.6c0.2,0,0.2,0,0.4,0l0,0c16.7,32.8,49.4,54.5,86.2,56.8
	c36.7,2.4,72-14.8,92.8-45.2c29.5,5.7,60-1.5,83.8-19.9c23.7-18.4,38.5-46.1,40.3-76.1c1.9-30-9.3-59.3-30.6-80.5
	C1157.3,691.1,1127.9,680.2,1097.9,682.2L1097.9,682.2z M1083.2,610.3c13.3-18.5,37.9-15.2,49.6-12.4c-4.8,11.4-17.8,34.3-45.1,36.7
	c-8.2,0.7-15.4,1.5-21.8,2.2c-8.8,1-15.3,1.6-20.3,1.8l0,0C1060.8,633.3,1073.8,623.3,1083.2,610.3L1083.2,610.3z M971.4,653.3
	c-18.3-1.8-26.4-19.8-29.5-29.9c10.8-1.1,32.1-0.7,45,17.5c4.1,5.9,7.8,10.9,11.1,15.4c2.8,3.7,5,6.8,6.9,9.6
	C995,658.7,983.5,654.4,971.4,653.3z M836.5,781c-1.8-26.9,8.4-53.2,27.9-71.8c19.5-18.6,46.3-27.6,73.1-24.4s50.7,18,65.4,40.6
	c-34-1.4-66.5,13.9-87.1,41c-20.6,27.1-26.7,62.5-16.2,94.9c-17.3-5.5-32.7-16.1-43.9-30.5S837.8,799.3,836.5,781L836.5,781z
	 M1005.2,920.3c-24,1.6-47.6-6.3-65.8-22.2s-29.2-38.2-30.8-62.2c-1.6-24,6.3-47.6,22.2-65.8c16.6-12,38.9-24.2,62.2-30.8
	c23.2-6.5,47.6,6.3,65.8,22.2s29.2,38.2,30.8,62.2c1.6,24-6.3,47.6-22.2,65.8C1051.6,907.5,1029.2,918.7,1005.2,920.3L1005.2,920.3z
	 M1111.1,876.9L1111.1,876.9c-6.2,0.4-12.4,0.2-18.5-0.7c13.4-26.8,14.6-58.2,3.2-86s-34.1-49.3-62.6-59.1
	c18.8-24.4,48.6-37.6,79.3-35c30.6,2.5,58,20.5,72.4,47.6c14.5,27.2,14.2,59.7-0.7,86.7C1169.4,857.3,1141.8,874.8,1111.1,876.9
	L1111.1,876.9z M889.6,728.4c-1.8-0.4-3.4-1.5-4.4-3c-1-1.5-1.3-3.4-0.9-5.3c0.4-1.8,1.5-3.3,3.1-4.3c1.5-1,3.5-1.2,5.3-0.8l9.8,2.3
	l2.4-6.3c1.4-3.6,5.4-5.3,8.9-4c3.6,1.4,5.3,5.4,4,8.9l-1.8,4.6l8,1.9l0,0c3.7,0.9,6,4.6,5.1,8.3c-0.9,3.7-4.6,6-8.2,5.1l-9.8-2.3
	l-2.4,6.3c-1.4,3.6-5.4,5.3-8.9,4c-3.6-1.4-5.3-5.4-4-8.9l1.8-4.6L889.6,728.4z M1157.4,743.9L1157.4,743.9c2,3.3,1.1,7.5-2.2,9.5
	l-4.1,2.6l5.3,6.3c2.4,2.9,2,7.2-0.8,9.7c-2.9,2.4-7.2,2-9.7-0.8l-6.5-7.7l-5.8,3.7l0,0c-3.3,2-7.5,1.1-9.5-2.2
	c-2-3.3-1.1-7.5,2.2-9.5l4.1-2.6l-5.3-6.3c-2.4-2.9-2-7.2,0.9-9.7c2.9-2.4,7.2-2,9.7,0.9l6.5,7.7l5.8-3.7l0,0
	C1151.2,739.7,1155.5,740.7,1157.4,743.9L1157.4,743.9z M1025.5,826.2c-0.8,1.6-2.3,2.8-4,3.4c-1.7,0.6-3.7,0.4-5.3-0.4l-9-4.6
	l-3.9,5.6c-1,1.5-2.6,2.6-4.5,3c-1.8,0.3-3.7,0-5.3-1.1c-1.5-1.1-2.5-2.7-2.8-4.6c-0.3-1.9,0.2-3.7,1.3-5.2l2.8-4l-7.3-3.7
	c-1.7-0.8-2.9-2.2-3.6-4c-0.6-1.8-0.5-3.7,0.4-5.4c0.8-1.6,2.3-2.9,4.1-3.5c1.8-0.6,3.7-0.4,5.3,0.5l9,4.6l3.9-5.6
	c1-1.5,2.6-2.6,4.5-3c1.8-0.3,3.7,0,5.3,1.1c1.5,1.1,2.5,2.7,2.8,4.6c0.3,1.9-0.2,3.7-1.3,5.2l-2.8,4l7.3,3.7
	C1025.9,818.7,1027.2,822.8,1025.5,826.2L1025.5,826.2z M997.6,834.6c-1.7,0-3.4-0.5-4.7-1.5c-1.7-1.2-2.9-3.1-3.3-5.3
	c-0.4-2.2,0.2-4.4,1.5-6.2l1.9-2.8l-6.1-3c-2-0.9-3.4-2.5-4.2-4.7c-0.7-2.2-0.5-4.4,0.5-6.3c1-1.9,2.7-3.4,4.8-4.1
	c2.1-0.7,4.3-0.5,6.2,0.6l8,4.1l3.3-4.7c1.1-1.8,3-3,5.2-3.5c2.3-0.4,4.5,0.1,6.3,1.3c1.7,1.2,2.9,3.1,3.3,5.3
	c0.4,2.2-0.2,4.4-1.5,6.2l-1.9,2.8l6.1,3c4,2.2,5.6,7,3.6,11l0,0c-0.9,1.9-2.6,3.3-4.7,4c-2,0.7-4.3,0.5-6.2-0.5l-8.1-4.1l-3.3,4.7
	c-1.1,1.8-3,3-5.2,3.5C998.6,834.5,998.1,834.6,997.6,834.6z M990.5,802.8c-0.6,0-1.2,0.1-1.7,0.3c-1.4,0.5-2.7,1.5-3.3,2.9
	c-0.7,1.4-0.8,2.9-0.3,4.4c0.5,1.5,1.5,2.6,2.9,3.3l8.6,4.3l-3.6,5.1c-1,1.3-1.4,2.8-1.1,4.3c0.3,1.6,1.1,2.9,2.3,3.8
	c1.2,0.9,2.8,1.2,4.4,0.9c1.6-0.3,2.9-1.2,3.7-2.5l4.5-6.5l10,5c1.3,0.7,3,0.8,4.3,0.3c1.4-0.5,2.6-1.5,3.3-2.8
	c1.4-2.8,0.3-6.2-2.6-7.7l-8.5-4.3l3.6-5.1c1-1.3,1.4-2.8,1.1-4.3c-0.3-1.6-1.1-2.9-2.3-3.8c-1.2-0.9-2.8-1.2-4.4-0.9
	c-1.6,0.3-2.9,1.2-3.7,2.5l-4.5,6.5l-10-5C992.3,803,991.4,802.8,990.5,802.8z"/>
</svg>
