<?xml version="1.0" encoding="utf-8"?>
<!-- Generator: Adobe Illustrator 19.0.0, SVG Export Plug-In . SVG Version: 6.00 Build 0)  -->
<svg version="1.1" id="Layer_1" xmlns="http://www.w3.org/2000/svg" xmlns:xlink="http://www.w3.org/1999/xlink" x="0px" y="0px"
	 viewBox="1622 -660.1 3840 2160" style="enable-background:new 1622 -660.1 3840 2160;" xml:space="preserve">
<style type="text/css">
	.st0{fill:#FF0030;}
	.st1{fill:#1B0064;stroke:#1B0064;stroke-width:2.1535;stroke-miterlimit:10;}
</style>
<g>
	<path class="st0" d="M4737.9,492.3c-41.4,29.2-51.3,86.6-22.1,128c29.2,41.4,86.6,51.3,128,22.1c41.4-29.2,51.3-86.6,22.1-128
		C4836.7,473,4779.3,463.1,4737.9,492.3z"/>
	<path class="st0" d="M4948.5,589.5c-41.4,29.2-51.3,86.6-22.1,128c29.2,41.4,86.6,51.3,128,22.1s51.3-86.6,22.1-128
		C5047.3,570.1,4989.9,560.1,4948.5,589.5z"/>
	<path class="st0" d="M5138.1,455.6c-41.4,29.2-51.3,86.6-22.1,128c29.2,41.4,86.6,51.3,128,22.1s51.3-86.6,22.1-128
		C5236.8,436.2,5179.4,426.2,5138.1,455.6z"/>
	<path class="st0" d="M5327.6,321.7c-41.4,29.2-51.3,86.6-22.1,128c29.2,41.4,86.6,51.3,128,22.1c41.4-29.2,51.3-86.6,22.1-128
		C5426.4,302.2,5369,292.3,5327.6,321.7L5327.6,321.7z"/>
	<path class="st0" d="M4759,723.3c-41.4,29.2-51.3,86.6-22.1,128c29.2,41.4,86.6,51.3,128,22.1c41.4-29.2,51.3-86.6,22.1-128
		C4857.8,704,4800.4,694,4759,723.3z"/>
	<path class="st0" d="M4927.4,358.4c-41.4,29.2-51.3,86.6-22.1,128c29.2,41.4,86.6,51.3,128,22.1s51.3-86.6,22.1-128
		C5026.2,339.1,4968.8,329.2,4927.4,358.4z"/>
	<path class="st0" d="M5116.9,224.6c-41.4,29.2-51.3,86.6-22.1,128c29.2,41.4,86.6,51.3,128,22.1c41.4-29.2,51.3-86.6,22.1-128
		C5215.7,205.2,5158.3,195.4,5116.9,224.6z"/>
	<path class="st0" d="M4970,820.9c-41.4,29.2-51.3,86.6-22.1,128c29.2,41.4,86.6,51.3,128,22.1c41.4-29.2,51.3-86.6,22.1-128
		S5011.4,791.7,4970,820.9z"/>
	<path class="st0" d="M5181.3,918.7c-41.4,29.2-51.3,86.6-22.1,128c29.2,41.4,86.6,51.3,128,22.1c41.4-29.2,51.3-86.6,22.1-128
		C5280.1,899.4,5222.5,889.5,5181.3,918.7z"/>
	<path class="st0" d="M5370.7,784.8c-41.4,29.2-51.3,86.6-22.1,128c29.2,41.4,86.6,51.3,128,22.1s51.3-86.6,22.1-128
		C5469.6,765.5,5412.2,755.6,5370.7,784.8z"/>
	<path class="st0" d="M5159.5,687c-41.4,29.2-51.3,86.6-22.1,128c29.2,41.4,86.6,51.3,128,22.1c41.4-29.2,51.3-86.6,22.1-128
		C5258.3,667.7,5200.9,657.8,5159.5,687z"/>
	<path class="st0" d="M5349,553.1c-41.4,29.2-51.3,86.6-22.1,128c29.2,41.4,86.6,51.3,128,22.1s51.3-86.6,22.1-128
		C5447.8,533.8,5390.4,523.9,5349,553.1z"/>
	<path class="st0" d="M4755.9,219.9c31.8,45.1,93.1,62.9,125.5,69.1c4.9-32.7,8.6-96.2-23.3-141.5c-23-32.6-61.4-50.5-89.6-59.8
		c-13.7-4.6-26-7.5-35.9-9.5C4727.9,111.1,4724.1,174.8,4755.9,219.9L4755.9,219.9z"/>
	<path class="st0" d="M4819.1,395.5c18.1-12.9,39.8-32.6,51-59.3c-10.7-2.3-23.9-5.3-38-10c-51.8,0.8-113.8,21.8-159.2,53.8
		c-18,12.7-39.6,31.6-52,55.4C4684.2,449.8,4763.8,434.5,4819.1,395.5L4819.1,395.5L4819.1,395.5z"/>
	<path class="st0" d="M4933,255.1c-0.4,14.9-1.7,28.2-3.3,39.1c28.8-1.7,54.8-15.5,72.9-28.4c55.3-39,96.2-108.8,103.8-173.5
		c-26.6,3.7-51.7,17.8-69.7,30.4C4991.5,155.1,4951,206.5,4933,255.1L4933,255.1z"/>
</g>
<path class="st1" d="M2117.1,393.1c-26.8,1.9-51.3,15.3-67.4,36.8c6.7-21,8.6-43.3,5.6-65.2c6.2,2.3,13,3,19.6,2.1
	c4.5-0.3,9.6-0.9,15.4-1.5c5.5-0.6,11.8-1.3,19-1.9c40.1-3.5,52-45.1,52.5-46.9c0.9-3-0.7-6.2-3.7-7.2c-1.7-0.7-42.6-16-63.7,13.4
	c-10,13.9-25.6,22.8-42.7,24.2l0,0c-2.4-8.8-5.6-17.4-9.7-25.6c-0.7-1.5-1.9-2.6-3.5-3.2c-1.6-0.6-3.2-0.4-4.7,0.3
	c-1.4,0.7-2.6,2-3.1,3.6c-0.5,1.6-0.4,3.2,0.4,4.7c6.7,13.4,10.9,28,12.5,43c-1.5-2.1-3.2-4.3-4.9-6.7c-2.9-3.9-6.1-8.3-9.7-13.4
	c-20.3-28.9-57.1-19.6-58.6-19.2c-3,0.8-5,3.7-4.5,6.8c0.3,1.6,6.6,39.3,38.3,42.4c14.5,1.4,27.6,9,36,21c0.7,1.1,1.7,1.9,3,2.4
	c-0.7,5.7-1.8,11.3-3.2,16.8c-18.2-24.3-47-38-77.3-36.9c-30.3,1.1-58,17.1-74.3,42.6c-16.3,25.6-19,57.4-7.2,85.3
	c11.8,27.9,36.5,48.2,66.1,54.4c0.1,0,0.2,0,0.4,0l0,0c14.7,29,43.6,48.1,76.2,50.2c32.4,2.1,63.6-13.1,82-39.9
	c26.1,5,53-1.4,74-17.6c21-16.2,34-40.7,35.6-67.2s-8.2-52.4-27.1-71.1C2169.5,401,2143.6,391.3,2117.1,393.1L2117.1,393.1z
	 M2104.1,329.6c11.8-16.3,33.5-13.4,43.8-10.9c-4.2,10-15.7,30.3-39.8,32.4c-7.3,0.6-13.6,1.4-19.2,1.9c-7.8,0.9-13.5,1.4-17.9,1.6
	l0,0C2084.3,349.9,2095.9,341.1,2104.1,329.6L2104.1,329.6z M2005.4,367.5c-16.2-1.6-23.3-17.5-26.1-26.4c9.5-1,28.4-0.6,39.7,15.4
	c3.6,5.2,6.9,9.6,9.8,13.6c2.4,3.3,4.5,6,6.1,8.5C2026.3,372.3,2016.1,368.5,2005.4,367.5z M1886.3,480.4
	c-1.6-23.8,7.4-46.9,24.6-63.4c17.2-16.4,40.9-24.3,64.5-21.5c23.6,2.8,44.8,15.9,57.8,35.9c-30-1.2-58.7,12.3-76.9,36.2
	c-18.2,23.9-23.5,55.2-14.3,83.8c-15.3-4.9-28.9-14.2-38.8-26.9C1893.4,511.7,1887.4,496.5,1886.3,480.4L1886.3,480.4z
	 M2035.3,603.3c-21.2,1.4-42.1-5.6-58.1-19.6c-16-14-25.8-33.7-27.2-54.9s5.6-42.1,19.6-58.1c14.6-10.6,34.3-21.4,54.9-27.2
	c20.5-5.7,42.1,5.6,58.1,19.6s25.8,33.7,27.2,54.9c1.4,21.2-5.6,42.1-19.6,58.1C2076.2,592.1,2056.5,601.9,2035.3,603.3
	L2035.3,603.3z M2128.8,565L2128.8,565c-5.5,0.4-11,0.1-16.4-0.6c11.8-23.7,12.8-51.4,2.8-75.9c-10-24.5-30.1-43.6-55.3-52.2
	c16.6-21.5,42.9-33.2,70.1-30.9c27.1,2.2,51.2,18.1,64,42.1c12.8,24,12.6,52.8-0.6,76.5C2180.2,547.7,2155.9,563.1,2128.8,565
	L2128.8,565z M1933.2,433.9c-1.6-0.4-3-1.3-3.9-2.7c-0.9-1.4-1.1-3-0.8-4.7c0.4-1.6,1.4-2.9,2.7-3.8c1.4-0.9,3.1-1.1,4.7-0.7l8.7,2
	l2.2-5.6c1.2-3.2,4.7-4.7,7.8-3.5c3.2,1.2,4.7,4.7,3.5,7.8l-1.6,4l7,1.7l0,0c3.3,0.8,5.3,4,4.5,7.3c-0.8,3.3-4,5.3-7.2,4.5l-8.7-2
	l-2.2,5.6c-1.2,3.2-4.7,4.7-7.8,3.5c-3.2-1.2-4.7-4.7-3.5-7.8l1.6-4L1933.2,433.9z M2169.7,447.6L2169.7,447.6
	c1.8,2.9,0.9,6.6-1.9,8.4l-3.7,2.3l4.7,5.5c2.2,2.6,1.8,6.4-0.7,8.5c-2.6,2.2-6.4,1.8-8.5-0.7l-5.7-6.8l-5.1,3.2l0,0
	c-2.9,1.8-6.6,0.9-8.4-1.9c-1.8-2.9-0.9-6.6,1.9-8.4l3.7-2.3l-4.7-5.5c-2.2-2.6-1.8-6.4,0.8-8.5c2.6-2.2,6.4-1.8,8.5,0.8l5.7,6.8
	l5.1-3.2l0,0C2164.2,443.9,2168,444.8,2169.7,447.6L2169.7,447.6z M2053.2,520.2c-0.7,1.4-2,2.5-3.5,3c-1.5,0.5-3.2,0.4-4.7-0.4
	l-8-4l-3.4,5c-0.9,1.4-2.3,2.3-3.9,2.7c-1.6,0.3-3.3,0-4.7-1c-1.4-0.9-2.2-2.4-2.5-4c-0.3-1.7,0.1-3.3,1.1-4.6l2.4-3.5l-6.5-3.2
	c-1.5-0.7-2.6-1.9-3.2-3.5c-0.5-1.6-0.4-3.2,0.4-4.7c0.7-1.4,2-2.6,3.6-3.1c1.6-0.5,3.2-0.4,4.7,0.4l8,4l3.4-5
	c0.9-1.4,2.3-2.3,3.9-2.7c1.6-0.3,3.3,0,4.7,1c1.4,0.9,2.2,2.4,2.5,4c0.3,1.7-0.1,3.3-1.1,4.6l-2.4,3.5l6.5,3.2
	C2053.5,513.6,2054.7,517.2,2053.2,520.2L2053.2,520.2z M2028.5,527.7c-1.5,0-3-0.5-4.1-1.3c-1.5-1.1-2.6-2.7-2.9-4.7
	c-0.3-1.9,0.2-3.9,1.4-5.4l1.7-2.4l-5.3-2.7c-1.7-0.8-3-2.2-3.7-4.1c-0.6-2-0.5-3.9,0.4-5.6c0.9-1.7,2.4-3,4.2-3.6
	c1.9-0.6,3.8-0.4,5.5,0.5l7.1,3.6l2.9-4.2c1-1.5,2.6-2.7,4.6-3.1c2-0.4,4,0.1,5.5,1.2c1.5,1.1,2.6,2.7,2.9,4.7
	c0.3,1.9-0.2,3.9-1.4,5.4l-1.7,2.4l5.3,2.7c3.6,2,5,6.2,3.2,9.7l0,0c-0.8,1.7-2.3,3-4.1,3.6c-1.8,0.6-3.8,0.4-5.5-0.4l-7.1-3.6
	l-2.9,4.2c-1,1.5-2.6,2.7-4.6,3.1C2029.4,527.6,2029,527.7,2028.5,527.7z M2022.3,499.6c-0.5,0-1,0.1-1.5,0.2
	c-1.3,0.4-2.3,1.3-3,2.5c-0.6,1.2-0.7,2.6-0.3,3.9c0.5,1.3,1.4,2.3,2.6,2.9l7.6,3.8l-3.1,4.5c-0.9,1.1-1.2,2.5-1,3.8
	c0.2,1.4,1,2.6,2.1,3.3c1.1,0.8,2.5,1.1,3.9,0.8c1.4-0.3,2.5-1.1,3.2-2.2l4-5.8l8.8,4.4c1.2,0.6,2.6,0.7,3.8,0.3
	c1.3-0.4,2.3-1.3,2.9-2.5c1.2-2.5,0.2-5.5-2.3-6.8l-7.5-3.8l3.1-4.5c0.9-1.1,1.2-2.5,1-3.8c-0.2-1.4-1-2.6-2.1-3.3
	c-1.1-0.8-2.5-1.1-3.9-0.8c-1.4,0.3-2.5,1.1-3.2,2.2l-4,5.8l-8.8-4.4C2023.9,499.8,2023.1,499.6,2022.3,499.6z"/>
</svg>
