<?xml version="1.0" encoding="utf-8"?>
<!-- Generator: Adobe Illustrator 19.0.0, SVG Export Plug-In . SVG Version: 6.00 Build 0)  -->
<svg version="1.1" id="Layer_1" xmlns="http://www.w3.org/2000/svg" xmlns:xlink="http://www.w3.org/1999/xlink" x="0px" y="0px"
	 viewBox="1648 104.9 3185 520" style="enable-background:new 1648 104.9 3185 520;" xml:space="preserve">
<style type="text/css">
	.st0{fill:#ED002F;}
</style>
<g id="XMLID_2_">
	<path id="XMLID_19_" class="st0" d="M2339.1,310.7c11.3,37.5,22.5,71.5,33.7,102c11.2,30.5,22.3,58.4,33.1,83.9
		c8-27.5,16.1-60,24.2-97.3c8.1-37.3,16-76.7,23.5-118.3h23.5c-4.3,25-8.6,48.4-12.9,70.2s-8.8,42.6-13.5,62.3
		c-4.7,19.7-9.7,38.6-14.8,56.7c-5.2,18.1-10.8,35.9-16.9,53.3h-25.6c-5.5-13.3-11-26.7-16.5-40s-10.9-27-16.3-41.1
		c-5.4-14.1-10.8-28.8-16.2-44.2s-10.8-31.7-16.3-49c-5.5,17.3-11,33.7-16.5,49.1c-5.4,15.4-10.9,30.2-16.2,44.3
		c-5.4,14.1-10.8,27.8-16.3,41.1c-5.5,13.3-11.1,26.6-16.8,39.8h-25.1c-6.3-17.5-12.1-35.3-17.4-53.4c-5.3-18.1-10.2-37-14.8-56.7
		c-4.6-19.7-8.9-40.5-13-62.3c-4.1-21.8-8.3-45.2-12.5-70.1h24.5c3.6,20.5,7.3,40.6,11,60.4c3.7,19.7,7.6,38.8,11.7,57.2
		s8.3,35.9,12.6,52.3c4.3,16.5,8.6,31.7,12.9,45.7c10-25.9,20.7-53.9,32.2-84.1c11.5-30.2,22.8-64.1,34-101.7L2339.1,310.7
		L2339.1,310.7z"/>
	<path id="XMLID_21_" class="st0" d="M2547.5,288c0,5.4-1.6,9.6-4.9,12.8c-3.3,3.1-7.2,4.7-11.9,4.7s-8.6-1.6-11.9-4.7
		c-3.3-3.1-4.9-7.4-4.9-12.8c0-5.4,1.6-9.6,4.9-12.8c3.3-3.1,7.2-4.7,11.9-4.7s8.6,1.6,11.9,4.7
		C2545.9,278.4,2547.5,282.6,2547.5,288z M2542.3,523.5h-22.8v-181h22.8V523.5z"/>
	<path id="XMLID_24_" class="st0" d="M2648.3,526.7c-7.7-0.2-14.4-1.2-20.1-3c-5.7-1.8-10.5-4.4-14.3-8c-3.9-3.6-6.8-8.3-8.8-14
		s-3-12.9-3-21.5v-224l22.8-4.2v227.5c0,5.6,0.5,10.1,1.6,13.5c1,3.4,2.6,6.1,4.7,8c2.1,2,4.8,3.4,8.2,4.4c3.4,0.9,7.4,1.8,12.1,2.5
		L2648.3,526.7z"/>
	<path id="XMLID_26_" class="st0" d="M2835.6,517.9c-6.8,2.3-15.4,4.6-25.9,6.7s-23.8,3.2-39.9,3.2c-13.3,0-25.4-2.2-36.2-6.5
		c-10.8-4.3-20.2-10.6-28-18.7c-7.8-8.2-13.9-18.1-18.2-29.8c-4.3-11.7-6.5-24.9-6.5-39.5c0-13.8,1.8-26.4,5.4-38
		s8.9-21.5,15.9-29.9s15.6-14.9,25.7-19.6c10.2-4.7,21.8-7,34.8-7c11.9,0,22.2,1.7,31,5.1c8.8,3.4,15.1,6.6,19.1,9.6v-97.3l22.8-4.2
		V517.9L2835.6,517.9z M2812.8,375.5c-2.1-1.6-4.7-3.4-7.9-5.3c-3.2-1.9-6.8-3.6-11-5.3c-4.2-1.6-8.8-3-13.6-4
		c-4.9-1-10-1.6-15.4-1.6c-11.2,0-20.6,2-28.2,5.9c-7.6,4-13.7,9.3-18.4,15.9c-4.7,6.6-8,14.5-10.2,23.4c-2.1,9-3.1,18.5-3.1,28.5
		c0,23.8,6,42.1,17.8,54.8c11.9,12.7,27.7,19.1,47.3,19.1c11.2,0,20.2-0.5,27.1-1.6c6.9-1,12.1-2.2,15.6-3.3L2812.8,375.5
		L2812.8,375.5z"/>
	<path id="XMLID_29_" class="st0" d="M2955.3,525.6c-4,0-8.6-0.2-13.8-0.5c-5.3-0.4-10.6-0.8-16.1-1.4s-10.7-1.3-15.6-2.1
		c-4.9-0.8-9.1-1.7-12.6-2.6V285.5c4.2-1.2,8.9-2.2,14-3c5.1-0.8,10.4-1.5,15.9-2.1s10.8-1,16.1-1.2c5.3-0.2,10.1-0.4,14.5-0.4
		c13.1,0,25.5,1,37.3,3.1c11.8,2.1,22.1,5.6,31,10.5c8.9,4.9,15.9,11.4,21.2,19.4c5.3,8,7.9,18,7.9,29.9c0,13-3.3,24.2-10,33.4
		s-15.6,15.6-26.8,19c7,1.6,13.4,4,19.3,7c5.8,3,11,7,15.4,11.7c4.4,4.8,7.9,10.6,10.3,17.5c2.4,6.9,3.7,15.1,3.7,24.7
		c0,22.9-9.1,40.4-27.3,52.4C3021.5,519.4,2993.3,525.6,2955.3,525.6z M2921,386.7h46.2c8.6,0,16.8-0.6,24.5-1.9s14.4-3.6,20.1-7
		c5.7-3.4,10.2-7.9,13.5-13.6c3.3-5.7,4.9-13,4.9-21.8c0-7.9-1.8-14.6-5.3-20c-3.5-5.5-8.5-9.9-14.9-13.4c-6.4-3.5-14.1-6-22.9-7.5
		c-8.9-1.5-18.7-2.3-29.4-2.3c-8.6,0-15.9,0.2-21.9,0.7s-10.9,1-14.9,1.8v85H2921z M2921,407v95.9c3.5,0.5,8.8,1,15.8,1.6
		s14.1,0.9,21.3,0.9c10.7,0,21.2-0.7,31.3-2.1c10.2-1.4,19.1-4,26.8-7.7s13.9-8.9,18.5-15.5c4.7-6.6,7-15,7-25.3
		c0-9.4-1.6-17.2-4.9-23.4c-3.3-6.2-7.9-11.1-14-14.7c-6.1-3.6-13.5-6.1-22.2-7.6c-8.8-1.4-18.5-2.1-29.2-2.1L2921,407L2921,407z"/>
	<path id="XMLID_33_" class="st0" d="M3105.4,432.9c0-15.9,2.3-29.7,6.8-41.5s10.5-21.6,17.8-29.6c7.4-7.9,15.8-13.8,25.2-17.7
		s19.2-5.8,29.2-5.8c22.2,0,39.8,7.2,53,21.7c13.2,14.5,19.8,36.8,19.8,66.9c0,1.9-0.1,3.7-0.2,5.6c-0.1,1.9-0.3,3.6-0.5,5.3h-127
		c0.7,22.2,6.2,39.2,16.4,51.1c10.3,11.9,26.6,17.9,49,17.9c12.4,0,22.2-1.2,29.4-3.5c7.2-2.3,12.5-4.3,15.8-6l4.2,19.6
		c-3.3,1.9-9.4,4.1-18.4,6.7s-19.5,3.8-31.7,3.8c-15.9,0-29.4-2.3-40.6-7c-11.2-4.7-20.4-11.2-27.6-19.6s-12.5-18.4-15.8-29.9
		C3107.1,459.3,3105.4,446.6,3105.4,432.9z M3233.9,418.5c-0.5-18.9-4.9-33.6-13.3-44.1c-8.4-10.5-20.3-15.8-35.7-15.8
		c-8.2,0-15.5,1.6-21.9,4.9c-6.4,3.3-12,7.6-16.8,13.1s-8.5,11.8-11.2,19.1c-2.7,7.2-4.3,14.8-4.7,22.8H3233.9z"/>
	<path id="XMLID_36_" class="st0" d="M3369.7,339.1c7.5,0,14.5,0.6,21.2,1.8s11.3,2.3,13.8,3.5l-4.5,19.6c-1.9-0.9-5.7-1.9-11.4-3
		c-5.7-1-13.2-1.6-22.6-1.6c-9.8,0-17.7,0.7-23.6,2.1c-6,1.4-9.9,2.6-11.7,3.5v158.6h-22.8V351c5.8-2.6,13.9-5.2,24.2-7.9
		C3342.5,340.4,3355,339.1,3369.7,339.1z"/>
	<path id="XMLID_38_" class="st0" d="M3500.6,339.1c7.5,0,14.5,0.6,21.2,1.8s11.3,2.3,13.8,3.5l-4.5,19.6c-1.9-0.9-5.7-1.9-11.4-3
		c-5.7-1-13.2-1.6-22.6-1.6c-9.8,0-17.7,0.7-23.6,2.1c-6,1.4-9.9,2.6-11.7,3.5v158.6H3439V351c5.8-2.6,13.9-5.2,24.2-7.9
		C3473.4,340.4,3485.9,339.1,3500.6,339.1z"/>
	<path id="XMLID_40_" class="st0" d="M3626.6,527.4c-7.6-14.3-15-29.1-22.1-44.5s-13.8-31-20-46.7s-11.9-31.5-17-47.2
		c-5.2-15.7-9.6-31.2-13.3-46.4h24.2c2.6,11.2,5.8,23.3,9.8,36.2c4,13,8.4,26.3,13.5,40.1c5,13.8,10.5,27.9,16.6,42.4
		s12.7,28.7,19.8,42.7c5.2-14.4,9.8-28,13.8-40.9c4-12.8,7.7-25.6,11.1-38.3c3.4-12.7,6.7-25.7,9.9-39s6.4-27.7,9.8-43.2h22.8
		c-7.6,33.9-16.1,66.8-25.6,98.8s-19.8,61.3-31,87.8c-4.4,10.5-9,19.5-13.7,27.1s-9.9,13.8-15.6,18.7c-5.7,4.9-12.4,8.5-20,10.8
		s-16.6,3.5-26.9,3.5c-5.9,0-11.2-0.7-16-2.1s-7.8-2.5-9-3.2l4.6-18.9c0.9,0.7,3.6,1.7,7.9,3c4.3,1.3,8.8,1.9,13.5,1.9
		c6.5,0,12.5-0.7,17.7-2.1c5.3-1.4,10-3.8,14.2-7.2c4.2-3.4,8-7.8,11.4-13.1C3620.1,542.3,3623.4,535.5,3626.6,527.4z"/>
	<path id="XMLID_42_" class="st0" d="M4016.8,402.1c0,20.8-3.3,38.9-9.8,54.3s-15.7,28.2-27.5,38.5s-25.8,18-42.2,23.1
		c-16.3,5.1-34.3,7.7-53.9,7.7c-9.8,0-20.1-0.5-30.8-1.6c-10.7-1-20.2-2.6-28.3-4.7V285.5c8.2-2.3,17.6-4,28.3-5.1
		c10.7-1,21-1.6,30.8-1.6c19.6,0,37.6,2.6,53.9,7.7c16.3,5.1,30.4,12.8,42.2,23.1s20.9,23.1,27.5,38.5
		C4013.5,363.6,4016.8,381.5,4016.8,402.1z M3848.1,502.5c1.4,0.2,5,0.7,10.7,1.4c5.7,0.7,14.9,1.1,27.5,1.1
		c17.5,0,32.8-2.4,45.8-7.2c13.1-4.8,24-11.6,32.9-20.5s15.5-19.7,20-32.4c4.4-12.7,6.6-27,6.6-42.9s-2.2-30.1-6.6-42.7
		c-4.4-12.6-11.1-23.3-20-32.2s-19.8-15.7-32.9-20.5c-13.1-4.8-28.3-7.2-45.8-7.2c-12.6,0-21.8,0.4-27.5,1
		c-5.7,0.7-9.3,1.2-10.7,1.4V502.5z"/>
	<path id="XMLID_45_" class="st0" d="M4096.6,288c0,5.4-1.6,9.6-4.9,12.8c-3.3,3.1-7.2,4.7-11.9,4.7s-8.6-1.6-11.9-4.7
		c-3.3-3.1-4.9-7.4-4.9-12.8c0-5.4,1.6-9.6,4.9-12.8c3.3-3.1,7.2-4.7,11.9-4.7s8.6,1.6,11.9,4.7C4095,278.4,4096.6,282.6,4096.6,288
		z M4091.4,523.5h-22.8v-181h22.8V523.5z"/>
	<path id="XMLID_48_" class="st0" d="M4269.5,502.5c-1.4,1.2-3.5,2.5-6.3,4c-2.8,1.5-6.2,3.1-10.3,4.7s-8.8,3-14,4
		c-5.3,1.1-11.1,1.6-17.7,1.6c-10.5,0-20.7-1.6-30.5-4.9c-9.8-3.3-18.4-8.4-25.7-15.4c-7.4-7-13.2-16-17.7-27.1
		c-4.4-11.1-6.7-24.6-6.7-40.4c0-12.8,2-24.7,6-35.7s9.6-20.5,17-28.5s16.3-14.4,27-18.9c10.6-4.5,22.6-6.8,35.9-6.8
		c16.8,0,30.3,1.1,40.4,3.3c10.2,2.2,18.5,4.4,25,6.5v165.2c0,27.1-7,46.4-21,57.9s-35.1,17.3-63.4,17.3c-11.7,0-22.2-0.9-31.7-2.6
		s-17.6-3.8-24.3-6.1l4.6-20.7c5.6,2.6,13.2,4.8,22.9,6.7c9.7,1.9,19.4,2.8,29.2,2.8c21.5,0,37-4.1,46.7-12.4s14.5-22.5,14.5-42.5
		v-12H4269.5z M4269.2,364.6c-4-1.2-9.1-2.3-15.4-3.3s-15.3-1.6-27-1.6c-9.8,0-18.5,1.7-26.1,5.1c-7.6,3.4-14.1,8.2-19.4,14.4
		c-5.4,6.2-9.4,13.5-12.3,22c-2.8,8.5-4.2,17.9-4.2,28.2c0,11.9,1.6,22.1,4.9,30.6s7.5,15.5,12.8,20.8c5.3,5.4,11.3,9.3,18,11.7
		c6.8,2.5,13.7,3.7,20.7,3.7c10.3,0,19.7-1.5,28.2-4.6c8.5-3,15.1-6.5,19.8-10.5V364.6z"/>
	<path id="XMLID_51_" class="st0" d="M4380.1,288c0,5.4-1.6,9.6-4.9,12.8c-3.3,3.1-7.2,4.7-11.9,4.7s-8.6-1.6-11.9-4.7
		c-3.3-3.1-4.9-7.4-4.9-12.8c0-5.4,1.6-9.6,4.9-12.8c3.3-3.1,7.2-4.7,11.9-4.7s8.6,1.6,11.9,4.7
		C4378.5,278.4,4380.1,282.6,4380.1,288z M4374.9,523.5h-22.8v-181h22.8V523.5z"/>
	<path id="XMLID_54_" class="st0" d="M4456.4,342.6h72.1v19.3h-72.1v96.3c0,10.3,0.9,18.6,2.6,25c1.8,6.4,4.3,11.4,7.5,14.9
		c3.3,3.5,7.2,5.8,11.9,7s9.8,1.8,15.4,1.8c9.6,0,17.3-1.1,23.1-3.3c5.8-2.2,10.4-4.3,13.7-6.1l5.6,18.9c-3.3,2.1-9,4.5-17.2,7.2
		s-17,4-26.6,4c-11.2,0-20.6-1.5-28.2-4.4c-7.6-2.9-13.7-7.3-18.2-13.3s-7.8-13.4-9.6-22.2c-1.9-8.9-2.8-19.4-2.8-31.5V289.4
		l22.8-4.2V342.6z"/>
	<path id="XMLID_56_" class="st0" d="M4625.5,338.4c11.9,0,22,1.7,30.3,5.1c8.3,3.4,15,8.1,20.1,14c5.1,6,8.9,13,11.2,21.2
		s3.5,17,3.5,26.6v114.1c-2.3,0.7-5.7,1.5-10.2,2.3c-4.4,0.8-9.6,1.7-15.4,2.6s-12.3,1.7-19.4,2.3c-7.1,0.6-14.4,0.9-21.9,0.9
		c-9.6,0-18.4-1-26.4-3.1s-15-5.4-21-10s-10.6-10.4-14-17.5c-3.4-7.1-5.1-15.8-5.1-26.1c0-9.8,1.9-18.2,5.6-25.2
		c3.7-7,9-12.8,15.8-17.3s14.8-7.9,24.1-10s19.5-3.1,30.5-3.1c3.3,0,6.7,0.2,10.3,0.5c3.6,0.4,7.1,0.8,10.5,1.4
		c3.4,0.6,6.3,1.2,8.8,1.8s4.1,1.1,5.1,1.6v-11.2c0-6.3-0.5-12.4-1.4-18.4c-0.9-5.9-3-11.3-6.1-16.1c-3.2-4.8-7.6-8.6-13.3-11.6
		c-5.7-2.9-13.2-4.4-22.6-4.4c-13.3,0-23.2,0.9-29.8,2.8c-6.5,1.9-11.3,3.4-14.3,4.5l-3.2-20c4-1.9,10.1-3.6,18.4-5.3
		C4603.8,339.2,4613.8,338.4,4625.5,338.4z M4627.6,507.1c8.9,0,16.6-0.3,23.3-0.9c6.7-0.6,12.3-1.3,17-2.3v-63.7
		c-2.6-1.2-6.7-2.4-12.3-3.7c-5.6-1.3-13.3-1.9-23.1-1.9c-5.6,0-11.4,0.4-17.5,1.2c-6.1,0.8-11.7,2.6-16.8,5.3
		c-5.1,2.7-9.3,6.4-12.6,11c-3.3,4.7-4.9,10.9-4.9,18.5c0,6.8,1.1,12.5,3.3,17.2s5.4,8.4,9.5,11.2c4.1,2.8,9,4.8,14.7,6.1
		C4613.9,506.4,4620.3,507.1,4627.6,507.1z"/>
	<path id="XMLID_59_" class="st0" d="M4794.5,526.7c-7.7-0.2-14.4-1.2-20.1-3c-5.7-1.8-10.5-4.4-14.4-8c-3.8-3.6-6.8-8.3-8.8-14
		s-3-12.9-3-21.5v-224l22.8-4.2v227.5c0,5.6,0.5,10.1,1.6,13.5c1,3.4,2.6,6.1,4.7,8c2.1,2,4.8,3.4,8.2,4.4c3.4,0.9,7.4,1.8,12.1,2.5
		L4794.5,526.7z"/>
</g>
<g id="XMLID_3_">
	<path id="XMLID_18_" class="st0" d="M1788.4,264.1c-22.4,0-40.7,18.2-40.7,40.7c0,22.4,18.2,40.7,40.7,40.7s40.7-18.2,40.7-40.7
		C1829,282.4,1810.8,264.1,1788.4,264.1z"/>
	<path id="XMLID_17_" class="st0" d="M1839.7,353c-22.4,0-40.7,18.2-40.7,40.7c0,22.4,18.2,40.7,40.7,40.7s40.7-18.2,40.7-40.7
		S1862.1,353,1839.7,353z"/>
	<path id="XMLID_16_" class="st0" d="M1942.4,353c-22.4,0-40.7,18.2-40.7,40.7c0,22.4,18.2,40.7,40.7,40.7
		c22.4,0,40.7-18.2,40.7-40.7S1964.9,353,1942.4,353z"/>
	<path id="XMLID_15_" class="st0" d="M2045.2,353c-22.4,0-40.7,18.2-40.7,40.7c0,22.4,18.2,40.7,40.7,40.7
		c22.4,0,40.7-18.2,40.7-40.7S2067.6,353,2045.2,353L2045.2,353z"/>
	<path id="XMLID_14_" class="st0" d="M1737,353c-22.4,0-40.7,18.2-40.7,40.7c0,22.4,18.2,40.7,40.7,40.7s40.7-18.2,40.7-40.7
		S1759.4,353,1737,353z"/>
	<path id="XMLID_13_" class="st0" d="M1891.1,264.1c-22.4,0-40.7,18.2-40.7,40.7c0,22.4,18.2,40.7,40.7,40.7
		c22.4,0,40.7-18.2,40.7-40.7C1931.7,282.4,1913.5,264.1,1891.1,264.1z"/>
	<path id="XMLID_12_" class="st0" d="M1993.8,264.1c-22.4,0-40.7,18.2-40.7,40.7c0,22.4,18.2,40.7,40.7,40.7
		c22.4,0,40.7-18.2,40.7-40.7C2034.5,282.4,2016.2,264.1,1993.8,264.1z"/>
	<path id="XMLID_11_" class="st0" d="M1788.4,442.2c-22.4,0-40.7,18.2-40.7,40.7c0,22.4,18.2,40.7,40.7,40.7
		c22.4,0,40.7-18.2,40.7-40.7S1810.8,442.2,1788.4,442.2z"/>
	<path id="XMLID_10_" class="st0" d="M1839.7,531.5c-22.4,0-40.7,18.2-40.7,40.7s18.2,40.7,40.7,40.7s40.7-18.2,40.7-40.7
		S1862.1,531.5,1839.7,531.5z"/>
	<path id="XMLID_9_" class="st0" d="M1942.4,531.5c-22.4,0-40.7,18.2-40.7,40.7s18.2,40.7,40.7,40.7c22.4,0,40.7-18.2,40.7-40.7
		S1964.9,531.5,1942.4,531.5z"/>
	<path id="XMLID_8_" class="st0" d="M1891.1,442.2c-22.4,0-40.7,18.2-40.7,40.7c0,22.4,18.2,40.7,40.7,40.7
		c22.4,0,40.7-18.2,40.7-40.7S1913.5,442.2,1891.1,442.2z"/>
	<path id="XMLID_7_" class="st0" d="M1993.8,442.2c-22.4,0-40.7,18.2-40.7,40.7c0,22.4,18.2,40.7,40.7,40.7
		c22.4,0,40.7-18.2,40.7-40.7S2016.2,442.2,1993.8,442.2z"/>
	<path id="XMLID_6_" class="st0" d="M1864.4,170.2c0,24.5,17.6,46.5,27.7,57.1c10.1-10.6,27.7-32.6,27.7-57.1
		c0-17.6-9.3-33.9-17.1-44.5c-3.8-5.1-7.5-9.4-10.6-12.6C1882.1,123.7,1864.4,145.7,1864.4,170.2L1864.4,170.2z"/>
	<path id="XMLID_5_" class="st0" d="M1842.4,249.9c9.9,0,22.8-1.6,33.6-8.4c-3.3-3.5-7.3-8-11.2-13.3c-19-12.9-46.7-21.2-71.3-21.2
		c-9.7,0-22.4,1.3-33,6.8C1779.8,235.1,1812.5,249.9,1842.4,249.9L1842.4,249.9L1842.4,249.9z"/>
	<path id="XMLID_4_" class="st0" d="M1919.4,228.2c-3.9,5.3-7.9,9.8-11.2,13.3c10.9,6.8,23.8,8.4,33.6,8.4
		c29.9,0,62.6-14.8,81.9-36.2c-10.6-5.4-23.2-6.8-33-6.8C1966.2,206.9,1938.4,215.2,1919.4,228.2L1919.4,228.2z"/>
</g>
</svg>
